# xmcd CD database file
#
# Track frame offsets:
#	150
#	13165
#	32695
#	49995
#	61757
#	81627
#	94925
#	116407
#	132992
#	147392
#	167737
#	179529
#	198845
#	235965
#
# Disc length: 3371 seconds
#
# Revision: 0
# Processed by: cddbd v1.5.1PL2 Copyright (c) Steve Scherf et al.
# Submitted via: CDex 1.51
#
DISCID=c70d290e
DTITLE=Black Rebel Motorcycle Club - Howl
DYEAR=2005
DGENRE=Rock
TTITLE0=Shuffle Your Feet
TTITLE1=Howl
TTITLE2=Devil's Waitin'
TTITLE3=Ain't No Easy Way
TTITLE4=Still Suspicion Holds You Tight
TTITLE5=Fault Line
TTITLE6=Promise
TTITLE7=Weight of the World
TTITLE8=Restless Sinner
TTITLE9=Gospel Song
TTITLE10=Complication Situation
TTITLE11=Sympathetic Noose
TTITLE12=The Line
TTITLE13=Grind My Bones (Bonus Track)
EXTD=YEAR: 2005
EXTT0=
EXTT1=
EXTT2=
EXTT3=
EXTT4=
EXTT5=
EXTT6=
EXTT7=
EXTT8=
EXTT9=
EXTT10=
EXTT11=
EXTT12=
EXTT13=
PLAYORDER=
